<svg width="74" height="87" viewBox="0 0 74 87" fill="none" xmlns="http://www.w3.org/2000/svg">
<path d="M40.9987 2.12527C40.9991 1.8741 41.0565 1.62644 41.1665 1.40169C41.2764 1.17694 41.436 0.981201 41.6325 0.829825C41.8291 0.678448 42.0574 0.575544 42.2995 0.529177C42.5416 0.48281 42.7909 0.49424 43.028 0.562571C44.1571 0.869186 45.2417 1.32625 46.2536 1.92196L67.3668 14.3557C67.7722 14.5928 68.1185 14.9219 68.3789 15.3175C68.6394 15.7132 68.8069 16.1646 68.8686 16.6369C68.9302 17.1092 68.8843 17.5897 68.7344 18.041C68.5844 18.4923 68.3346 18.9023 68.0041 19.2392L57.5257 29.9229C57.0506 30.4032 56.4333 30.7104 55.7696 30.7969C55.1059 30.8834 54.4327 30.7443 53.8544 30.4013L40.1034 22.3087C39.9131 22.1972 39.6974 22.1384 39.4778 22.1384C39.2583 22.1384 39.0426 22.1972 38.8522 22.3087L23.6312 31.2783C20.8239 32.9925 18.6656 30.6723 20.3899 29.4485L37.2648 19.5142C37.9381 19.1193 38.7011 18.9115 39.4778 18.9115C40.2545 18.9115 41.0176 19.1193 41.6908 19.5142L55.0039 27.3476C55.1324 27.4242 55.2827 27.4536 55.4299 27.4312C55.5771 27.4087 55.7123 27.3356 55.8132 27.224C58.3507 24.4335 62.9448 19.5222 64.8059 17.5329C64.8749 17.4591 64.9265 17.3702 64.9569 17.273C64.9873 17.1758 64.9957 17.0729 64.9814 16.9719C64.9671 16.871 64.9305 16.7746 64.8743 16.6902C64.8182 16.6058 64.744 16.5354 64.6573 16.4845L44.6662 4.72444C43.8894 4.27066 43.0572 3.92349 42.1913 3.69195C41.8551 3.59926 41.5582 3.39647 41.3463 3.11481C41.1343 2.83315 41.0191 2.48825 41.0183 2.13324L40.9987 2.12527ZM14.0207 63.6643L34.9072 75.9665L35.0714 76.0582C35.3133 76.1883 35.584 76.2524 35.8574 76.2441C36.1307 76.2358 36.3973 76.1555 36.6311 76.011C36.865 75.8665 37.0581 75.6627 37.1918 75.4195C37.3255 75.1763 37.3951 74.9019 37.3939 74.6231V73.5826C37.0839 73.475 36.7832 73.3417 36.4946 73.184L15.6003 60.8618C14.6926 60.3279 13.9387 59.5599 13.4143 58.6348C12.89 57.7097 12.6137 56.6602 12.6132 55.5917V30.9913C12.6125 29.9226 12.8883 28.8726 13.4128 27.9473C13.9372 27.022 14.6918 26.2541 15.6003 25.7211L36.4946 13.4189C37.4021 12.8843 38.4317 12.6028 39.4798 12.6028C40.5279 12.6028 41.5575 12.8843 42.4649 13.4189L47.9778 16.628C47.823 17.4013 47.8756 18.2029 48.1303 18.9481C48.425 19.8171 48.98 20.5696 49.7171 21.0994C50.4541 21.6291 51.3358 21.9093 52.2375 21.9002C53.1392 21.8912 54.0153 21.5934 54.7419 21.0489C55.4686 20.5045 56.009 19.7409 56.2868 18.8662C56.5646 17.9915 56.5657 17.0499 56.29 16.1745C56.0142 15.2991 55.4756 14.5343 54.7503 13.988C54.0249 13.4418 53.1495 13.1418 52.2478 13.1306C51.3462 13.1193 50.4638 13.3973 49.7255 13.9252L44.0484 10.6164C42.6578 9.80151 41.0818 9.37266 39.4778 9.37266C37.8738 9.37266 36.2979 9.80151 34.9072 10.6164L14.0129 22.9187C12.6223 23.7358 11.4676 24.9124 10.6652 26.3296C9.86275 27.7469 9.44095 29.3548 9.4423 30.9913V55.5917C9.44451 57.2275 9.86782 58.834 10.6699 60.2506C11.472 61.6672 12.6247 62.8444 14.0129 63.6643H14.0207ZM68.7353 64.8124C68.1659 64.8198 67.6043 64.9484 67.0865 65.19C66.5687 65.4317 66.1062 65.781 65.7286 66.2157C64.3093 67.7744 64.2507 69.0381 64.5126 70.1782L44.674 81.8585C43.0962 82.7841 41.3078 83.2712 39.4876 83.2712C37.6673 83.2712 35.8789 82.7841 34.3012 81.8585L9.31327 67.1565C8.94756 66.9382 8.59623 66.6959 8.26152 66.4309C8.00926 66.2276 7.70286 66.1063 7.38212 66.0829C7.06138 66.0594 6.74113 66.1348 6.46299 66.2994C6.2384 66.429 6.04877 66.6133 5.91101 66.8358C5.77324 67.0583 5.69163 67.3121 5.67343 67.5746C5.65524 67.8371 5.70103 68.1001 5.80673 68.3401C5.91243 68.5802 6.07476 68.7898 6.27923 68.9504C6.74244 69.3162 7.22971 69.6492 7.7376 69.947L32.7177 84.653C34.7787 85.8607 37.1143 86.4963 39.4915 86.4963C41.8687 86.4963 44.2043 85.8607 46.2653 84.653L66.3463 72.8292C66.9044 73.2115 67.5425 73.4552 68.2096 73.5405C68.8767 73.6259 69.5541 73.5506 70.1875 73.3207C70.8209 73.0908 71.3926 72.7128 71.8567 72.2168C72.3209 71.7209 72.6645 71.1209 72.8601 70.4651C73.0556 69.8092 73.0977 69.1158 72.9828 68.4404C72.8679 67.7649 72.5994 67.1264 72.1987 66.576C71.798 66.0255 71.2763 65.5786 70.6755 65.2709C70.0747 64.9632 69.4115 64.8035 68.7392 64.8044L68.7353 64.8124ZM61.9478 61.1688L57.4397 56.5724C56.9915 56.1167 56.4087 55.824 55.7812 55.7397C55.1537 55.6554 54.5164 55.7841 53.9677 56.106L40.1073 64.2862C39.9156 64.3959 39.6995 64.4534 39.4798 64.4534C39.26 64.4534 39.0439 64.3959 38.8522 64.2862L21.9773 54.32C21.7871 54.2072 21.6293 54.0454 21.5195 53.851C21.4098 53.6565 21.3519 53.4362 21.3517 53.2118V36.357C21.3527 36.0631 21.2739 35.7747 21.1242 35.5235C20.9745 35.2724 20.7596 35.0683 20.5033 34.9339C20.2625 34.792 19.9889 34.7181 19.7108 34.7199C19.4327 34.7217 19.1601 34.7991 18.9211 34.9441C18.682 35.0891 18.4853 35.2965 18.351 35.5448C18.2168 35.7932 18.1499 36.0736 18.1574 36.357V53.2277C18.1584 54.0195 18.3633 54.7971 18.7517 55.4827C19.1401 56.1683 19.6982 56.7379 20.3703 57.1345L37.2648 67.0767C37.9378 67.4724 38.701 67.6807 39.4778 67.6807C40.2547 67.6807 41.0178 67.4724 41.6908 67.0767L55.8601 58.737C55.9929 58.6594 56.1479 58.6309 56.2989 58.6564C56.4499 58.6818 56.5877 58.7596 56.689 58.8766L59.5432 62.1893C59.6079 62.2641 59.6554 62.3525 59.6825 62.4483C59.7096 62.5441 59.7155 62.6448 59.6998 62.7432C59.6841 62.8416 59.6472 62.9352 59.5917 63.0173C59.5362 63.0993 59.4636 63.1678 59.379 63.2178L42.4649 73.184C42.3085 73.2757 42.1443 73.3594 41.984 73.4351C41.6963 73.5615 41.4503 73.7696 41.2756 74.0348C41.1009 74.2999 41.0048 74.6107 40.9987 74.9301C40.9986 75.1984 41.0638 75.4625 41.1886 75.6988C41.3134 75.935 41.4939 76.1359 41.7137 76.2834C41.9336 76.4308 42.186 76.5203 42.4481 76.5436C42.7103 76.5669 42.974 76.5234 43.2156 76.417C43.5013 76.2889 43.7794 76.1438 44.0484 75.9825L61.3495 65.8011C61.7355 65.5773 62.0653 65.2654 62.3131 64.8899C62.561 64.5143 62.7201 64.0853 62.7781 63.6366C62.8361 63.1878 62.7912 62.7314 62.6472 62.3032C62.5031 61.8751 62.2637 61.4868 61.9478 61.1688ZM4.08189 63.4889C4.40596 63.2904 4.6508 62.9815 4.77314 62.6168C4.89548 62.252 4.88745 61.855 4.75047 61.4957C4.35045 60.3736 4.14408 59.1894 4.14053 57.9956V28.5874C4.14262 26.7298 4.62291 24.9053 5.5334 23.2963C6.44389 21.6873 7.75268 20.3501 9.32891 19.4185L34.2933 4.72444C34.9117 4.36043 35.5673 4.06634 36.2483 3.84742C36.5767 3.74773 36.8652 3.54335 37.0713 3.26426C37.2775 2.98517 37.3905 2.64607 37.3939 2.29668C37.3941 2.04168 37.3355 1.7902 37.2228 1.56255C37.1101 1.33489 36.9466 1.13743 36.7453 0.98611C36.5439 0.834792 36.3106 0.733853 36.064 0.691442C35.8173 0.649031 35.5644 0.666337 35.3255 0.741962C34.4127 1.04331 33.5344 1.44428 32.7059 1.9379L7.72587 16.624C5.66953 17.8401 3.962 19.5848 2.77372 21.6841C1.58544 23.7833 0.957993 26.1636 0.954002 28.5874V57.9956C0.951165 59.574 1.21571 61.1412 1.73597 62.6278C1.81349 62.8554 1.93973 63.0625 2.10555 63.2342C2.27136 63.4058 2.47257 63.5376 2.69458 63.6201C2.91659 63.7025 3.15383 63.7335 3.38905 63.7108C3.62428 63.6881 3.85161 63.6123 4.05452 63.4889H4.08189Z" fill="white"/>
</svg>
